<svg width="24" height="25" viewBox="0 0 24 25" fill="none" xmlns="http://www.w3.org/2000/svg">
<path d="M17 3.49981C17.2626 3.23717 17.5744 3.02883 17.9176 2.88669C18.2608 2.74455 18.6286 2.67139 19 2.67139C19.3714 2.67139 19.7392 2.74455 20.0824 2.88669C20.4256 3.02883 20.7374 3.23717 21 3.49981C21.2626 3.76246 21.471 4.07426 21.6131 4.41742C21.7553 4.76058 21.8284 5.12838 21.8284 5.49981C21.8284 5.87125 21.7553 6.23905 21.6131 6.58221C21.471 6.92537 21.2626 7.23717 21 7.49981L7.5 20.9998L2 22.4998L3.5 16.9998L17 3.49981Z" stroke="black" stroke-width="2" stroke-linecap="round" stroke-linejoin="round"/>
</svg>
