<svg width="10" height="10" viewBox="0 0 10 10" fill="none" xmlns="http://www.w3.org/2000/svg">
<path d="M8.78185 0.408083L0.457343 8.77543C0.233075 9.00085 0.233075 9.36633 0.457343 9.59176C0.681611 9.81718 1.04522 9.81718 1.26949 9.59176L9.594 1.22441C9.81827 0.998987 9.81827 0.633505 9.594 0.408083C9.36973 0.182661 9.00612 0.182661 8.78185 0.408083Z" fill="#747474"/>
<path d="M9.5498 8.77585L1.21889 0.41493C0.994445 0.189681 0.630555 0.189681 0.406114 0.41493C0.181673 0.640179 0.181673 1.00538 0.406114 1.23063L8.73703 9.59155C8.96147 9.8168 9.32536 9.8168 9.5498 9.59155C9.77424 9.3663 9.77424 9.0011 9.5498 8.77585Z" fill="#747474"/>
</svg>
