<svg width="42" height="42" viewBox="0 0 42 42" fill="none" xmlns="http://www.w3.org/2000/svg">
<path d="M17.5 24.5H24.5V21H17.5V24.5ZM17.5 19.25H31.5V15.75H17.5V19.25ZM17.5 14H31.5V10.5H17.5V14ZM14 31.5C13.0375 31.5 12.2138 31.1576 11.529 30.4727C10.8442 29.7879 10.5012 28.9637 10.5 28V7C10.5 6.0375 10.843 5.21383 11.529 4.529C12.215 3.84417 13.0387 3.50117 14 3.5H35C35.9625 3.5 36.7868 3.843 37.4728 4.529C38.1587 5.215 38.5012 6.03867 38.5 7V28C38.5 28.9625 38.1576 29.7868 37.4728 30.4727C36.7879 31.1588 35.9637 31.5012 35 31.5H14ZM7 38.5C6.0375 38.5 5.21383 38.1576 4.529 37.4728C3.84417 36.7879 3.50117 35.9637 3.5 35V10.5H7V35H31.5V38.5H7Z" fill="#1A1A1A"/>
</svg>
